<?xml version="1.0" encoding="UTF-8" standalone="no"?>
<!-- Generator: Adobe Illustrator 16.0.0, SVG Export Plug-In . SVG Version: 6.00 Build 0)  -->

<svg
   xmlns:dc="http://purl.org/dc/elements/1.1/"
   xmlns:cc="http://creativecommons.org/ns#"
   xmlns:rdf="http://www.w3.org/1999/02/22-rdf-syntax-ns#"
   xmlns:svg="http://www.w3.org/2000/svg"
   xmlns="http://www.w3.org/2000/svg"
   xmlns:sodipodi="http://sodipodi.sourceforge.net/DTD/sodipodi-0.dtd"
   xmlns:inkscape="http://www.inkscape.org/namespaces/inkscape"
   version="1.1"
   id="Layer_1"
   x="0px"
   y="0px"
   width="757px"
   height="389.901px"
   viewBox="0 0 757 389.901"
   enable-background="new 0 0 757 389.901"
   xml:space="preserve"
   inkscape:version="0.91 r13725"
   sodipodi:docname="Venn4.svg"><metadata
     id="metadata3846"><rdf:RDF><cc:Work
         rdf:about=""><dc:format>image/svg+xml</dc:format><dc:type
           rdf:resource="http://purl.org/dc/dcmitype/StillImage" /></cc:Work></rdf:RDF></metadata><defs
     id="defs3844" /><sodipodi:namedview
     pagecolor="#ffffff"
     bordercolor="#666666"
     borderopacity="1"
     objecttolerance="10"
     gridtolerance="10"
     guidetolerance="10"
     inkscape:pageopacity="0"
     inkscape:pageshadow="2"
     inkscape:window-width="2161"
     inkscape:window-height="1180"
     id="namedview3842"
     showgrid="false"
     inkscape:zoom="2.4676354"
     inkscape:cx="283.06451"
     inkscape:cy="194.9505"
     inkscape:window-x="0"
     inkscape:window-y="0"
     inkscape:window-maximized="0"
     inkscape:current-layer="Layer_1" /><g
     opacity="0.6"
     id="g3766"><path
       fill="#CCCCCC"
       stroke="#000000"
       stroke-width="1.395"
       stroke-miterlimit="10"
       d="M374.893,197.101   c-19.609,22.687-34.061,46.542-42.462,68.755c13.88,12.345,28.251,22.75,42.462,31.021c14.213-8.272,28.582-18.676,42.463-31.021   C408.953,243.643,394.503,219.788,374.893,197.101z"
       id="path3768" /><path
       fill="#3399FF"
       stroke="#000000"
       stroke-width="1.395"
       stroke-miterlimit="10"
       d="M417.355,265.856   c7.152,18.906,9.916,36.604,7.722,51.359c23.807,5.036,44.277,1.826,57.16-11.058c21.369-21.369,16.188-63.578-9.282-107.344   c-10.817,18.586-25.269,37.452-42.941,55.123C425.857,258.095,421.628,262.056,417.355,265.856z"
       id="path3770" /><path
       fill="#993366"
       stroke="#000000"
       stroke-width="1.395"
       stroke-miterlimit="10"
       d="M324.71,317.215   c15.681-3.317,32.804-10.225,50.183-20.339c-14.211-8.271-28.582-18.676-42.462-31.021   C325.279,284.762,322.517,302.461,324.71,317.215z"
       id="path3772" /><path
       fill="#FF99FF"
       stroke="#000000"
       stroke-width="1.395"
       stroke-miterlimit="10"
       d="M417.355,265.856   c-13.881,12.345-28.25,22.748-42.463,31.021c17.381,10.114,34.504,17.021,50.185,20.339   C427.271,302.46,424.508,284.762,417.355,265.856z"
       id="path3774" /><path
       fill="#999900"
       stroke="#000000"
       stroke-width="1.395"
       stroke-miterlimit="10"
       d="M332.431,265.856   c-4.271-3.798-8.502-7.76-12.66-11.919c-17.671-17.671-32.124-36.536-42.94-55.123c-25.471,43.766-30.65,85.976-9.281,107.345   c12.883,12.884,33.354,16.094,57.161,11.057C322.517,302.461,325.279,284.762,332.431,265.856z"
       id="path3776" /><path
       fill="none"
       stroke="#000000"
       stroke-width="1.395"
       stroke-miterlimit="10"
       d="M388.004,356.059   c-3.901,0.592-7.705,0.971-11.374,1.078C380.592,357.082,384.392,356.727,388.004,356.059z"
       id="path3778" /><path
       fill="#99FFFF"
       stroke="#000000"
       stroke-width="1.395"
       stroke-miterlimit="10"
       d="M389.518,181.356   c-5.157,5.158-10.023,10.421-14.625,15.745c19.61,22.687,34.061,46.542,42.463,68.755c4.272-3.8,8.502-7.761,12.658-11.919   c17.673-17.671,32.124-36.537,42.941-55.123c-10.332-17.752-24.004-35.75-40.608-52.729   C417.811,155.761,403.301,167.574,389.518,181.356z"
       id="path3780" /><path
       fill="none"
       stroke="#000000"
       stroke-width="1.395"
       stroke-miterlimit="10"
       d="M373.203,357.138   c-3.701-0.107-7.541-0.49-11.479-1.09C365.368,356.726,369.203,357.083,373.203,357.138z"
       id="path3782" /><path
       fill="#FFCC00"
       stroke="#000000"
       stroke-width="1.395"
       stroke-miterlimit="10"
       d="M332.431,265.856   c8.401-22.213,22.853-46.068,42.462-68.755c-4.602-5.324-9.469-10.587-14.625-15.744c-13.783-13.783-28.294-25.596-42.83-35.272   c-16.604,16.979-30.275,34.977-40.607,52.729c10.817,18.587,25.269,37.452,42.94,55.123   C323.929,258.096,328.159,262.058,332.431,265.856z"
       id="path3784" /><path
       fill="#FF00FF"
       stroke="#000000"
       stroke-width="1.395"
       stroke-miterlimit="10"
       d="M425.077,317.215   c-15.681-3.317-32.804-10.225-50.185-20.339c-17.379,10.114-34.502,17.021-50.183,20.339c1.576,10.606,5.684,19.704,12.589,26.607   c6.427,6.427,14.755,10.428,24.426,12.226c3.938,0.6,7.777,0.982,11.479,1.09c0.398,0.004,0.802,0.001,1.203,0.001   c0.747,0.01,1.486,0.007,2.224-0.002c3.669-0.107,7.473-0.486,11.374-1.078c9.697-1.793,18.046-5.798,24.484-12.237   C419.394,336.918,423.501,327.821,425.077,317.215z"
       id="path3786" /><path
       fill="#3333FF"
       stroke="#000000"
       stroke-width="1.395"
       stroke-miterlimit="10"
       d="M551.985,129.136   c-12.884-12.883-33.354-16.094-57.16-11.057c3.302,22.216-4.631,51.111-21.87,80.735c25.47,43.766,30.651,85.975,9.282,107.344   c-12.883,12.884-33.354,16.094-57.16,11.058c-1.576,10.605-5.684,19.703-12.589,26.606c-6.438,6.439-14.787,10.444-24.484,12.237   c33.686-5.103,75.266-27.963,111.759-64.457C559.047,232.317,582.428,159.578,551.985,129.136z"
       id="path3788" /><path
       fill="#FF0000"
       stroke="#000000"
       stroke-width="1.395"
       stroke-miterlimit="10"
       d="M324.71,317.215   c-23.807,5.037-44.278,1.827-57.161-11.057c-21.369-21.369-16.189-63.579,9.281-107.345c-17.24-29.623-25.172-58.518-21.87-80.735   c-23.807-5.036-44.276-1.825-57.159,11.057c-30.444,30.443-7.062,103.182,52.221,162.466   c36.474,36.472,78.027,59.325,111.703,64.446c-9.671-1.798-17.999-5.799-24.426-12.226   C330.394,336.919,326.286,327.822,324.71,317.215z"
       id="path3790" /><path
       fill="#99FF00"
       stroke="#000000"
       stroke-width="1.395"
       stroke-miterlimit="10"
       d="M317.438,146.085   c14.536,9.676,29.047,21.489,42.83,35.272c5.156,5.157,10.023,10.42,14.625,15.744c4.602-5.324,9.468-10.587,14.625-15.745   c13.783-13.782,28.293-25.595,42.829-35.271c-0.779-0.796-1.54-1.6-2.331-2.392c-17.671-17.672-36.537-32.124-55.124-42.94   c-18.586,10.816-37.45,25.268-55.122,42.939C318.978,144.484,318.217,145.288,317.438,146.085z"
       id="path3792" /><path
       fill="#00FF00"
       stroke="#000000"
       stroke-width="1.395"
       stroke-miterlimit="10"
       d="M432.347,146.085   c21.53-14.332,43.106-23.909,62.479-28.006c-1.576-10.606-5.686-19.703-12.589-26.607c-21.37-21.369-63.578-16.189-107.345,9.282   c18.587,10.816,37.453,25.268,55.124,42.94C430.807,144.485,431.567,145.289,432.347,146.085z"
       id="path3794" /><path
       fill="#00FFFF"
       stroke="#000000"
       stroke-width="1.395"
       stroke-miterlimit="10"
       d="M472.955,198.814   c17.239-29.624,25.172-58.519,21.87-80.735c-19.372,4.098-40.948,13.675-62.479,28.006   C448.951,163.064,462.623,181.062,472.955,198.814z"
       id="path3796" /><path
       fill="#FFFF00"
       stroke="#000000"
       stroke-width="1.395"
       stroke-miterlimit="10"
       d="M319.77,143.692   c17.672-17.671,36.536-32.123,55.122-42.939c-43.766-25.47-85.974-30.649-107.342-9.281c-6.905,6.905-11.013,16.002-12.589,26.607   c19.372,4.099,40.947,13.674,62.477,28.006C318.217,145.288,318.978,144.484,319.77,143.692z"
       id="path3798" /><path
       fill="#FF9900"
       stroke="#000000"
       stroke-width="1.395"
       stroke-miterlimit="10"
       d="M276.831,198.814   c10.332-17.752,24.003-35.75,40.607-52.729c-21.53-14.332-43.105-23.907-62.477-28.006   C251.658,140.296,259.591,169.191,276.831,198.814z"
       id="path3800" /></g><text
     font-size="14"
     id="text3802"
     style="font-style:normal;font-variant:normal;font-weight:normal;font-stretch:normal;font-size:14px;line-height:125%;font-family:MyriadPro-Regular;-inkscape-font-specification:'MyriadPro-Regular, Normal';text-align:center;writing-mode:lr-tb;text-anchor:middle"
     sodipodi:linespacing="125%"
     x="310.45309"
     y="109.4849">$$B$$</text>
<text
     font-size="14"
     id="text3804"
     style="font-style:normal;font-variant:normal;font-weight:normal;font-stretch:normal;font-size:14px;line-height:125%;font-family:MyriadPro-Regular;-inkscape-font-specification:'MyriadPro-Regular, Normal';text-align:center;writing-mode:lr-tb;text-anchor:middle"
     sodipodi:linespacing="125%"
     x="447.6348"
     y="109.4849">$$C$$</text>
<text
     font-size="14"
     id="text3806"
     style="font-style:normal;font-variant:normal;font-weight:normal;font-stretch:normal;font-size:14px;line-height:125%;font-family:MyriadPro-Regular;-inkscape-font-specification:'MyriadPro-Regular, Normal';text-align:center;writing-mode:lr-tb;text-anchor:middle"
     sodipodi:linespacing="125%"
     x="526.62598"
     y="178.9868">$$D$$</text>
<text
     font-size="14"
     id="text3808"
     style="font-style:normal;font-variant:normal;font-weight:normal;font-stretch:normal;font-size:14px;line-height:125%;font-family:MyriadPro-Regular;-inkscape-font-specification:'MyriadPro-Regular, Normal';text-align:center;writing-mode:lr-tb;text-anchor:middle"
     sodipodi:linespacing="125%"
     x="229.3833"
     y="178.98779">$$A$$</text>
<text
     font-size="14"
     id="text3810"
     style="font-style:normal;font-variant:normal;font-weight:normal;font-stretch:normal;font-size:14px;line-height:125%;font-family:MyriadPro-Regular;-inkscape-font-specification:'MyriadPro-Regular, Normal';text-align:center;writing-mode:lr-tb;text-anchor:middle"
     sodipodi:linespacing="125%"
     x="374.22171"
     y="261.9888">$$ABCD$$</text>
<text
     font-size="14"
     id="text3812"
     style="font-style:normal;font-variant:normal;font-weight:normal;font-stretch:normal;font-size:14px;line-height:125%;font-family:MyriadPro-Regular;-inkscape-font-specification:'MyriadPro-Regular, Normal';text-align:center;writing-mode:lr-tb;text-anchor:middle"
     sodipodi:linespacing="125%"
     x="283.2056"
     y="153.8364">$$AB$$</text>
<text
     font-size="14"
     id="text3814"
     style="font-style:normal;font-variant:normal;font-weight:normal;font-stretch:normal;font-size:14px;line-height:125%;font-family:MyriadPro-Regular;-inkscape-font-specification:'MyriadPro-Regular, Normal';text-align:center;writing-mode:lr-tb;text-anchor:middle"
     sodipodi:linespacing="125%"
     x="466.0947"
     y="153.8364">$$CD$$</text>
<text
     font-size="14"
     id="text3816"
     style="font-style:normal;font-variant:normal;font-weight:normal;font-stretch:normal;font-size:14px;line-height:125%;font-family:MyriadPro-Regular;-inkscape-font-specification:'MyriadPro-Regular, Normal';text-align:center;writing-mode:lr-tb;text-anchor:middle"
     sodipodi:linespacing="125%"
     x="372.98541"
     y="148.9272">$$BC$$</text>
<text
     font-size="14"
     id="text3818"
     style="font-style:normal;font-variant:normal;font-weight:normal;font-stretch:normal;font-size:14px;line-height:125%;font-family:MyriadPro-Regular;-inkscape-font-specification:'MyriadPro-Regular, Normal';text-align:center;writing-mode:lr-tb;text-anchor:middle"
     sodipodi:linespacing="125%"
     x="321.47311"
     y="203.35789">$$ABC$$</text>
<text
     font-size="14"
     id="text3820"
     style="font-style:normal;font-variant:normal;font-weight:normal;font-stretch:normal;font-size:14px;line-height:125%;font-family:MyriadPro-Regular;-inkscape-font-specification:'MyriadPro-Regular, Normal';text-align:center;writing-mode:lr-tb;text-anchor:middle"
     sodipodi:linespacing="125%"
     x="422.93161"
     y="203.35789">$$BCD$$</text>
<text
     font-size="14"
     id="text3822"
     style="font-style:normal;font-variant:normal;font-weight:normal;font-stretch:normal;font-size:14px;line-height:125%;font-family:MyriadPro-Regular;-inkscape-font-specification:'MyriadPro-Regular, Normal';text-align:center;writing-mode:lr-tb;text-anchor:middle"
     sodipodi:linespacing="125%"
     x="288.6123"
     y="271.9888">$$AC$$</text>
<text
     font-size="14"
     id="text3824"
     style="font-style:normal;font-variant:normal;font-weight:normal;font-stretch:normal;font-size:14px;line-height:125%;font-family:MyriadPro-Regular;-inkscape-font-specification:'MyriadPro-Regular, Normal';text-align:center;writing-mode:lr-tb;text-anchor:middle"
     sodipodi:linespacing="125%"
     x="457.64551"
     y="269.9888">$$BD$$</text>
<text
     font-size="14"
     id="text3826"
     style="font-style:normal;font-variant:normal;font-weight:normal;font-stretch:normal;font-size:14px;line-height:125%;font-family:MyriadPro-Regular;-inkscape-font-specification:'MyriadPro-Regular, Normal';text-align:center;writing-mode:lr-tb;text-anchor:middle"
     sodipodi:linespacing="125%"
     x="338.95901"
     y="301.40088">$$ACD$$</text>
<text
     font-size="14"
     id="text3828"
     style="font-style:normal;font-variant:normal;font-weight:normal;font-stretch:normal;font-size:14px;line-height:125%;font-family:MyriadPro-Regular;-inkscape-font-specification:'MyriadPro-Regular, Normal';text-align:center;writing-mode:lr-tb;text-anchor:middle"
     sodipodi:linespacing="125%"
     x="408.9209"
     y="301.40088">$$ABD$$</text>
<text
     font-size="14"
     id="text3830"
     style="font-style:normal;font-variant:normal;font-weight:normal;font-stretch:normal;font-size:14px;line-height:125%;font-family:MyriadPro-Regular;-inkscape-font-specification:'MyriadPro-Regular, Normal';text-align:center;writing-mode:lr-tb;text-anchor:middle"
     sodipodi:linespacing="125%"
     x="375.62399"
     y="337.9722">$$AD$$</text>
<text
     font-size="14"
     id="text3832"
     style="font-style:normal;font-variant:normal;font-weight:normal;font-stretch:normal;font-size:14px;line-height:125%;font-family:MyriadPro-Regular;-inkscape-font-specification:'MyriadPro-Regular, Normal';text-align:end;writing-mode:lr-tb;text-anchor:end"
     sodipodi:linespacing="125%"
     x="164.1499"
     y="158.44679">$$LABELA$$</text>
<text
     font-size="14"
     id="text3834"
     style="font-style:normal;font-variant:normal;font-weight:normal;font-stretch:normal;font-size:14px;line-height:125%;font-family:MyriadPro-Regular;-inkscape-font-specification:'MyriadPro-Regular, Normal';text-align:end;writing-mode:lr-tb;text-anchor:end"
     sodipodi:linespacing="125%"
     x="271.63531"
     y="78.131798">$$LABELB$$</text>
<text
     transform="matrix(1 0 0 1 494.8262 78.1323)"
     font-family="'MyriadPro-Regular'"
     font-size="14"
     id="text3836">$$LABELC$$</text>
<text
     transform="matrix(1 0 0 1 584.9902 158.4468)"
     font-family="'MyriadPro-Regular'"
     font-size="14"
     id="text3838">$$LABELD$$</text>
<text
     font-size="24"
     id="text3840"
     x="375.64261"
     y="29.9009"
     style="font-style:normal;font-variant:normal;font-weight:normal;font-stretch:normal;font-size:24px;line-height:125%;font-family:MyriadPro-Regular;-inkscape-font-specification:'MyriadPro-Regular, Normal';text-align:center;writing-mode:lr-tb;text-anchor:middle"
     sodipodi:linespacing="125%">$$TITLE$$</text>
</svg>