<?xml version="1.0" encoding="UTF-8" standalone="no"?>
<!-- Generator: Adobe Illustrator 16.0.0, SVG Export Plug-In . SVG Version: 6.00 Build 0)  -->

<svg
   xmlns:dc="http://purl.org/dc/elements/1.1/"
   xmlns:cc="http://creativecommons.org/ns#"
   xmlns:rdf="http://www.w3.org/1999/02/22-rdf-syntax-ns#"
   xmlns:svg="http://www.w3.org/2000/svg"
   xmlns="http://www.w3.org/2000/svg"
   xmlns:sodipodi="http://sodipodi.sourceforge.net/DTD/sodipodi-0.dtd"
   xmlns:inkscape="http://www.inkscape.org/namespaces/inkscape"
   version="1.1"
   id="Layer_1"
   x="0px"
   y="0px"
   width="918px"
   height="682px"
   viewBox="0 0 918 682"
   enable-background="new 0 0 918 682"
   xml:space="preserve"
   inkscape:version="0.91 r13725"
   sodipodi:docname="Venn3.svg"><metadata
     id="metadata3530"><rdf:RDF><cc:Work
         rdf:about=""><dc:format>image/svg+xml</dc:format><dc:type
           rdf:resource="http://purl.org/dc/dcmitype/StillImage" /></cc:Work></rdf:RDF></metadata><defs
     id="defs3528" /><sodipodi:namedview
     pagecolor="#ffffff"
     bordercolor="#666666"
     borderopacity="1"
     objecttolerance="10"
     gridtolerance="10"
     guidetolerance="10"
     inkscape:pageopacity="0"
     inkscape:pageshadow="2"
     inkscape:window-width="1979"
     inkscape:window-height="1346"
     id="namedview3526"
     showgrid="false"
     inkscape:snap-text-baseline="true"
     inkscape:zoom="1.2742438"
     inkscape:cx="398.79853"
     inkscape:cy="320.62437"
     inkscape:window-x="0"
     inkscape:window-y="0"
     inkscape:window-maximized="0"
     inkscape:current-layer="Layer_1" /><g
     id="g3454"><g
       id="g3456"
       opacity="0.5"><path
         d="M556.64,155.68c83.57,0,151.32,67.75,151.32,151.32c0,65.3-41.36,120.939-99.31,142.15    c-11.29-50.5-47.82-91.47-95.65-108.98c2.391-10.68,3.65-21.78,3.65-33.17c0-47.28-21.69-89.5-55.66-117.25    C487.061,168.45,520.359,155.68,556.64,155.68z"
         id="path3458"
         fill="#2E3192" /></g><g
       id="g3460"
       opacity="0.5"><path
         d="M608.65,449.15c2.39,10.68,3.649,21.779,3.649,33.17c0,83.569-67.74,151.31-151.31,151.31    c-83.57,0-151.32-67.74-151.32-151.31c0-11.391,1.26-22.49,3.65-33.17c16.22,5.93,33.73,9.17,52.01,9.17    c36.29,0,69.59-12.78,95.66-34.07c26.07,21.3,59.369,34.07,95.649,34.07C574.91,458.32,592.43,455.08,608.65,449.15z"
         id="path3462"
         fill="#39B54A" /></g><g
       id="g3464"
       opacity="0.5"><path
         d="M513,340.17c47.83,17.51,84.36,58.48,95.65,108.98c-16.221,5.93-33.74,9.17-52.011,9.17    c-36.28,0-69.579-12.771-95.649-34.07C486.779,403.189,505.48,373.79,513,340.17z"
         id="path3466"
         fill="#FCEE21" /></g><g
       id="g3468"
       opacity="0.5"><path
         d="M516.65,307c0,11.39-1.26,22.49-3.65,33.17c-16.221-5.93-33.73-9.17-52.01-9.17    c-18.28,0-35.79,3.24-52.01,9.17c-2.39-10.68-3.65-21.78-3.65-33.17c0-47.29,21.69-89.51,55.66-117.25    C494.96,217.5,516.65,259.72,516.65,307z"
         id="path3470"
         fill="#662D91" /></g><g
       id="g3472"
       opacity="0.5"><path
         d="M513,340.17c-7.52,33.62-26.221,63.02-52.01,84.08c-25.78-21.061-44.49-50.46-52.01-84.08    c16.22-5.93,33.73-9.17,52.01-9.17C479.27,331,496.779,334.24,513,340.17z"
         id="path3474"
         fill="#FFFFFF" /></g><g
       id="g3476"
       opacity="0.5"><path
         d="M460.99,189.75c-33.97,27.74-55.66,69.96-55.66,117.25c0,11.39,1.26,22.49,3.65,33.17    c-47.84,17.51-84.37,58.48-95.66,108.98C255.37,427.939,214.01,372.3,214.01,307c0-83.57,67.75-151.32,151.32-151.32    C401.62,155.68,434.92,168.46,460.99,189.75z"
         id="path3478"
         fill="#ED1C24" /></g><g
       id="g3480"
       opacity="0.5"><path
         d="M408.98,340.17c7.52,33.62,26.23,63.02,52.01,84.08c-26.07,21.29-59.37,34.07-95.66,34.07    c-18.28,0-35.79-3.24-52.01-9.17C324.61,398.65,361.14,357.68,408.98,340.17z"
         id="path3482"
         fill="#F7931E" /></g><g
       id="g3484"><g
         id="g3486"><path
           d="M317.768,453.74c-57.95-21.211-99.31-76.851-99.31-142.15c0-83.57,67.75-151.32,151.32-151.32     c36.29,0,69.589,12.78,95.66,34.07"
           id="path3488"
           fill="none" /></g><g
         id="g3490"><path
           d="M413.428,344.76c-2.39-10.68-3.65-21.78-3.65-33.17c0-47.29,21.69-89.51,55.66-117.25     c26.07-21.3,59.37-34.07,95.65-34.07c83.57,0,151.32,67.75,151.32,151.32c0,65.3-41.361,120.939-99.311,142.15"
           id="path3492"
           fill="none" /></g><g
         id="g3494"><path
           d="M613.098,453.74c2.391,10.68,3.65,21.779,3.65,33.17c0,83.569-67.74,151.31-151.311,151.31     c-83.57,0-151.32-67.74-151.32-151.31c0-11.391,1.26-22.49,3.65-33.17c11.29-50.5,47.82-91.471,95.66-108.98     c16.22-5.93,33.73-9.17,52.01-9.17c18.28,0,35.79,3.24,52.01,9.17C565.277,362.27,601.809,403.24,613.098,453.74z"
           id="path3496"
           fill="none" /></g></g><circle
       stroke-miterlimit="10"
       cx="556.646"
       cy="307.005"
       r="151.316"
       id="circle3498"
       stroke-width="2"
       stroke="#000000"
       fill="none" /><circle
       stroke-miterlimit="10"
       cx="365.326"
       cy="307.005"
       r="151.316"
       id="circle3500"
       stroke-width="2"
       stroke="#000000"
       fill="none" /><circle
       stroke-miterlimit="10"
       cx="460.99"
       cy="482.316"
       r="151.316"
       id="circle3502"
       stroke-width="2"
       stroke="#000000"
       fill="none" /></g><text
     font-size="18"
     id="text3504"
     x="228.05547"
     y="189.75"
     style="font-size:17.99999952px;font-family:MyriadPro-Regular;text-anchor:end;-inkscape-font-specification:'MyriadPro-Regular, Normal';font-weight:normal;font-style:normal;font-stretch:normal;font-variant:normal;text-align:end;writing-mode:lr;line-height:125%;"
     sodipodi:linespacing="125%">$$LABELA$$</text>
<text
     text-anchor="start"
     transform="matrix(1 0 0 1 701.999 189.75)"
     font-family="'MyriadPro-Regular'"
     font-size="18"
     id="text3506"
     style="-inkscape-font-specification:'MyriadPro-Regular, Normal';font-family:MyriadPro-Regular;font-weight:normal;font-style:normal;font-stretch:normal;font-variant:normal;font-size:17.99999952px;text-anchor:start;text-align:start;writing-mode:lr;line-height:125%;"
     sodipodi:linespacing="125%">$$LABELB$$</text>
<text
     text-anchor="start"
     transform="matrix(1 0 0 1 567.625 638.2197)"
     font-family="'MyriadPro-Regular'"
     font-size="18"
     id="text3508">$$LABELC$$</text>
<text
     font-size="18"
     id="text3510"
     x="459.58499"
     y="371.625"
     style="font-size:18px;font-family:MyriadPro-Regular;text-anchor:middle">$$ABC$$</text>
<text
     font-size="18"
     id="text3512"
     x="538.25488"
     y="422.7832"
     style="font-size:18px;font-family:MyriadPro-Regular;text-anchor:middle">$$BC$$</text>
<text
     font-size="18"
     id="text3514"
     x="389.95999"
     y="422.7832"
     style="font-size:18px;font-family:MyriadPro-Regular;text-anchor:middle">$$AC$$</text>
<text
     font-size="18"
     id="text3516"
     x="459.58499"
     y="285.83591"
     style="font-size:18px;font-family:MyriadPro-Regular;text-anchor:middle">$$AB$$</text>
<text
     font-size="18"
     id="text3518"
     x="459.58499"
     y="548.99323"
     style="font-size:18px;font-family:MyriadPro-Regular;text-anchor:middle">$$C$$</text>
<text
     font-size="18"
     id="text3520"
     x="620.96088"
     y="285.83591"
     style="font-size:18px;font-family:MyriadPro-Regular;text-anchor:middle">$$B$$</text>
<text
     font-size="18"
     id="text3522"
     x="317.69431"
     y="285.83591"
     style="font-size:18px;font-family:MyriadPro-Regular;text-anchor:middle">$$A$$</text>
<text
     font-size="24"
     id="text3524"
     x="459.39944"
     y="69.050087"
     style="font-size:24px;font-family:MyriadPro-Regular;text-anchor:middle">$$TITLE$$</text>
</svg>